<?xml version="1.0" standalone="no"?>
<!DOCTYPE svg PUBLIC "-//W3C//DTD SVG 20010904//EN"
 "http://www.w3.org/TR/2001/REC-SVG-20010904/DTD/svg10.dtd">
<svg version="1.0" xmlns="http://www.w3.org/2000/svg"
 width="612.000000pt" height="612.000000pt" viewBox="0 0 612.000000 612.000000"
 preserveAspectRatio="xMidYMid meet">

<g transform="translate(0.000000,612.000000) scale(0.100000,-0.100000)"
fill="#000000" stroke="none">
<path d="M2893 5005 c-207 -37 -376 -126 -523 -274 -127 -128 -203 -255 -257
-428 l-27 -88 -4 -422 -3 -423 -156 0 c-177 0 -218 -9 -268 -57 -67 -65 -65
-31 -65 -1078 0 -1049 -2 -1009 67 -1078 20 -21 53 -42 72 -48 24 -7 469 -9
1352 -7 l1316 3 41 29 c25 17 50 47 64 75 l23 46 3 950 c2 616 -1 967 -8 997
-14 69 -47 114 -104 143 -47 24 -59 25 -212 25 l-163 0 -3 418 c-4 394 -5 421
-26 497 -76 274 -267 508 -517 632 -182 91 -407 124 -602 88z m278 -429 c204
-43 370 -205 424 -411 12 -48 15 -128 15 -427 l0 -368 -550 0 -550 0 0 368 c0
296 3 379 15 427 74 291 359 472 646 411z m7 -1798 c54 -26 125 -104 140 -156
18 -61 15 -150 -9 -202 -11 -25 -39 -64 -61 -87 l-41 -42 16 -103 c37 -231 77
-500 77 -513 0 -13 -37 -15 -240 -15 -191 0 -240 3 -240 13 0 7 18 132 40 278
22 145 43 283 47 305 5 39 3 44 -35 78 -110 100 -113 282 -4 388 88 87 200
107 310 56z"/>
</g>
</svg>
